<?xml version="1.0" encoding="UTF-8" standalone="no"?>
<svg
   xmlns:dc="http://purl.org/dc/elements/1.1/"
   xmlns:cc="http://creativecommons.org/ns#"
   xmlns:rdf="http://www.w3.org/1999/02/22-rdf-syntax-ns#"
   xmlns:svg="http://www.w3.org/2000/svg"
   xmlns="http://www.w3.org/2000/svg"
   width="178.1407"
   height="224.7368"
   viewBox="0 0 178.1407 224.7368"
   version="1.1"
   id="svg8">
  <defs
     id="defs2" />
  <metadata
     id="metadata5">
    <rdf:RDF>
      <cc:Work
         rdf:about="">
        <dc:format>image/svg+xml</dc:format>
        <dc:type
           rdf:resource="http://purl.org/dc/dcmitype/StillImage" />
        <dc:title></dc:title>
      </cc:Work>
    </rdf:RDF>
  </metadata>
  <g
     id="layer2"
     transform="translate(-6.8870682,-9.927077)">
    <path
       id="path4656"
       d="m 30.40625,40.21875 c -3.716889,7.327454 -8.985313,14.060881 -10.400391,22.335938 -3.438008,9.197694 -0.0256,19.11313 3.155887,27.791733 1.263718,4.186621 -0.0173,8.366394 -2.812137,11.682879 -3.271209,4.35689 -6.903746,7.29905 -11.186181,10.57459 -0.493945,0.37781 -1.2730134,0.55408 -1.7768242,0.95721 -0.7911343,6.40286 9.1783462,8.8332 6.4604722,14.91195 -1.991655,3.28293 2.548099,3.74048 4.493037,5.32051 3.491447,1.98353 6.982893,3.96705 10.47434,5.95058 -3.065955,2.05088 -7.887671,3.73655 -10.274955,6.89705 -0.777619,1.02948 -0.991999,2.62444 -1.775496,3.50993 -1.886701,2.13229 -2.87895,3.54676 -4.011122,6.12988 -0.523898,3.03979 1.073843,5.16799 3.293291,7.02908 2.266939,2.89212 6.585054,2.12744 9.810925,3.31 9.059097,1.99496 18.610576,1.98362 27.510092,-0.76656 2.481438,8.94925 3.693283,18.27696 3.922157,27.54072 -7.102195,4.57206 -13.47709,10.82991 -17.480183,18.55106 -3.112231,3.8287 -4.819315,7.13692 1.37818,7.93224 8.914538,3.86068 17.908553,7.74391 25.812658,13.47402 8.254432,-4.9601 15.57346,-12.52194 25.359415,-14.07963 l 13.353475,0.55815 -28.183593,-31.96875 1.935547,-29.45508 c 3.714109,-1.46712 7.973665,-2.03715 11.330902,-4.09121 10.157924,-10.04251 20.315854,-20.08503 30.473784,-30.12754 0.35352,-11.3724 0.70703,-22.74479 1.06055,-34.117188 L 87.681641,52.240234 Z"
       style="fill:#ffe0bd;fill-opacity:1;stroke:none;stroke-width:1px;stroke-linecap:butt;stroke-linejoin:miter;stroke-opacity:1" />
    <path
       id="path4576"
       d="M 72.500545,85.540535 C 71.647146,82.268391 71.505389,77.791297 71.395691,74.889738 l 0.640817,-4.441515 3.889087,-5.568466 -4.772971,0.353553 -7.071068,-0.883883 -5.126525,-2.386486 -5.214912,-3.18198 -4.331029,-3.800699 -4.507806,-3.093593 -3.889088,-2.386485 -5.08233,-0.30936 c -1.375169,-0.203728 -2.417543,-1.048251 -3.204078,-1.546796 -0.887498,-0.86462 -1.92408,-1.776666 -2.923286,-1.915184 l -2.136947,-2.592622 5.480078,-22.715806 15.291185,0.176777 10.606602,7.336233 6.894291,0.265165 5.39169,-0.176777 8.04334,-2.386485 11.136932,-0.441942 11.932427,1.149049 7.68979,4.596194 9.54594,18.915107 5.48008,25.72101 -0.26517,26.693283 -5.56847,3.35876 -5.48007,-3.35876 -7.51301,-9.015612 L 93.3381,92.456923 79.615012,94.52286 Z"
       style="fill:#a05a2c;stroke:none;stroke-width:1px;stroke-linecap:butt;stroke-linejoin:miter;stroke-opacity:1" />
    <path
       id="path4824"
       d="m 21.329439,64.294129 c -0.839979,4.334679 -1.092941,6.800361 -1.069563,10.980208 0.02358,4.215446 0.397657,5.614896 3.571228,14.962396 1.062292,3.1289 1.334588,4.8503 0.662447,6.87039 -1.742775,5.237827 -6.307799,9.899507 -10.479483,13.138597 -1.781424,1.38318 -4.4734017,2.99632 -4.9365097,2.99632 -0.733999,0 -0.267987,-0.5249 1.8365177,-2.0686 2.523648,-1.85114 5.58409,-4.8814 7.101016,-6.82663 2.444239,-3.13437 4.723902,-5.974997 5.221786,-9.938077 0.195896,-1.5593 -0.38057,-3.11941 -2.348786,-8.16602 -1.858779,-4.76601 -3.118085,-10.144208 -2.930281,-14.894893 0.405533,-10.258354 3.467436,-17.934906 9.141793,-25.976025 1.104548,-1.565252 3.188139,-1.873913 2.396435,-0.619544 -4.175587,6.615765 -6.652303,11.727407 -8.1666,19.541878 z"
       style="fill:#000000;stroke-width:0.26458332" />
    <path
       id="path4800"
       d="m 79.301701,142.37717 c 0.110873,-0.39513 0.233036,-0.72121 0.377065,-1.27761 h 4e-6 c 10.68952,3.20644 19.4711,-3.80123 23.36511,-14.32427 2.77782,-7.50668 2.47617,-10.51141 -0.68449,-21.58498 -0.65749,-2.30355 0.47225,-2.4764 1.5247,0.01 5.40257,12.76348 4.34712,15.43954 2.39298,21.98907 -3.0124,10.0964 -14.47462,21.24804 -26.975369,15.18779 z"
       style="fill:#000000;stroke-width:0.26458332" />
    <path
       id="path4526"
       d="m 102.5478,100.7011 c -4.38298,1.52938 -10.06939,7.93676 -15.077066,7.639 C 78.25886,107.79235 73.490606,90.532333 72.4008,85.175073 c 2.001737,2.858 4.926266,4.27864 7.88959,4.65838 2.676419,0.34297 5.221578,-0.68767 11.09862,-4.43406 6.05385,-3.85911 8.49196,-5.03765 11.21994,-5.01192 8.84989,0.0835 13.20189,11.14959 13.79895,19.38293 1.52472,-9.21788 -6.35295,-21.52303 -14.01412,-21.58423 -2.68111,-0.0214 -3.28513,0.40115 -8.02965,3.21105 -4.744524,2.8099 -13.264985,8.48773 -18.692607,5.94681 -1.246203,-0.5834 -3.697947,-4.93062 -4.076549,-10.01687 -0.566101,-4.89875 -0.0507,-9.492224 2.640134,-11.182351 -7.54929,-0.06894 -12.137812,-1.042348 -19.612079,-6.229288 -5.17273,-3.589736 -8.174348,-7.38063 -14.009465,-9.882966 -1.104131,-0.473496 -2.104845,-0.661963 -3.307292,-0.672422 -1.345665,-0.01169 -1.719792,-0.101296 -1.719792,-0.411835 0,-0.321368 0.402696,-0.393075 2.116667,-0.376899 3.255989,0.03073 5.73347,1.170206 11.244792,5.513192 7.255609,5.717504 12.095361,10.02306 22.092707,10.294742 10.335269,0.280865 17.421959,-8.69358 27.781254,-8.658987 8.70406,0.02907 14.7471,7.294371 20.00176,14.469007 -2.8621,-9.256734 -11.71263,-17.937485 -20.39006,-17.998698 -9.99066,-0.07048 -17.885595,7.712735 -27.458499,8.54564 -7.437145,0.64708 -14.003921,-3.353115 -19.116746,-6.894697 -10.033552,-6.9501 -13.804632,-8.385157 -17.384421,-6.573949 -1.199573,0.60693 -1.443699,0.651664 -1.825794,0.334552 -0.382688,-0.317603 -0.533692,-0.792297 -0.295296,-3.530017 0.620372,-7.12431 6.424436,-14.279881 13.552386,-14.292276 6.410474,-0.01819 10.552211,5.487097 16.122854,6.752624 11.790963,2.678647 17.980533,-7.86331 30.205386,-7.559929 4.63478,0.11502 9.16628,1.132945 13.08963,1.922926 -5.2266,-2.4085 -12.59154,-4.253953 -18.672037,-4.279725 -7.066477,-0.02995 -18.515533,8.182657 -24.733358,7.717176 -4.396181,-0.329108 -13.782035,-8.423353 -18.537526,-8.403437 -6.582672,0.02757 -12.348463,8.199935 -12.605797,16.626446 -0.09045,2.961742 0.09981,3.29913 -1.041607,3.229153 -3.777459,-0.231587 -6.64332,4.69869 -9.039705,6.573008 -0.827237,0.63309 -1.811162,0.07698 -3.273698,-1.520203 -3.901587,-4.260773 -6.085739,-9.111154 -5.86135,-15.142498 0.356897,-9.593009 3.75354,-20.723823 13.312837,-24.558013 12.732127,-5.106798 32.985632,7.104477 46.019605,15.056691 17.324467,-11.436701 52.472486,2.895532 64.283056,19.179027 13.60189,18.753236 16.38417,46.936376 23.7459,69.853263 2.01378,8.17753 6.49473,14.96205 14.7109,14.9905 5.71775,0.0198 8.78078,-3.64692 11.39745,-7.88897 -0.72601,18.42352 0.70256,37.41688 -19.39796,53.67354 -0.96767,0.78262 -0.93623,1.49194 0.12458,2.05967 0.54029,0.28915 0.93877,0.27572 2.44301,-0.0824 2.05939,-0.4903 2.85647,-0.45013 3.83877,0.19349 1.01946,0.66798 1.28754,1.72844 1.44436,5.71356 0.23178,5.88991 -0.92703,15.14465 -2.5675,20.50521 -1.7277,5.6456 -4.11303,9.12264 -12.17053,13.47543 -11.18066,6.03998 -26.87667,16.07992 -39.29729,13.78806 -11.59628,-2.13975 -21.89973,-12.38945 -28.91574,-19.56889 -7.016014,-7.17944 -19.579517,-21.17333 -19.728927,-32.43351 -0.04044,-3.04778 -0.04011,-8.62093 2.61539,-16.24825 2.141607,-6.15129 4.445279,-14.00795 10.154153,-17.8215 2.493845,-1.6659 5.343415,-0.0327 7.858954,-1.52239 6.72553,-3.98284 12.65389,-9.44993 14.39106,-17.52024 1.75702,-8.16252 0.2267,-19.32855 -3.2723,-25.83863 z"
       style="fill:#401a00;fill-opacity:1;stroke-width:0.26458332" />
    <path
       id="path4522"
       d="m 79.26212,143.51867 c -1.340947,3.35 -3.111192,5.24514 -5.7136,3.42066 -2.878723,-2.01819 -0.606028,-4.9186 0.901916,-6.41514 1.663601,-1.65102 3.292031,-2.82181 5.339481,-4.46219 0.815636,-0.65347 1.484039,-0.8163 1.32952,-0.13229 -0.613688,2.7166 -0.873302,5.13066 -1.857317,7.58896 z"
       style="fill:#000000;stroke-width:0.26458332" />
    <path
       id="path4814"
       d="m 37.94851,169.19153 c -7.356093,-0.13822 -16.637084,-1.30439 -22.052179,-5.04225 -2.104919,-1.45296 -3.349976,-3.66159 -3.531124,-5.85331 -0.118592,-1.43485 -0.03308,-2.04887 0.426797,-3.18992 0.63336,-1.57149 1.999006,-3.23514 2.655644,-3.23514 0.636903,0 0.517168,0.61771 -0.260312,1.34294 -1.772517,2.09011 -2.606628,4.372 -1.680158,6.56341 2.104382,4.97755 10.44747,5.16437 13.877181,5.58651 7.755263,0.95454 16.097254,0.71766 23.252389,-0.40646 7.327448,-1.15119 12.282677,-3.30122 18.258211,-6.23234 2.91828,-1.323 2.749534,-0.29715 0.888879,1.11986 -9.195591,7.00302 -20.521616,9.55928 -31.835328,9.3467 z"
       style="fill:#000000;stroke-width:0.26458332" />
    <path
       id="path4794"
       d="m 137.62695,167.98047 c -1.41722,-2.50393 -1.87711,-5.06243 -3.00195,-8.05664 -2.71272,-7.22099 -9.4352,-9.81938 -17.33789,-10.07422 -2.06197,-0.0665 -13.12925,4.82441 -15.14063,7.25195 -1.66181,2.00566 -4.013019,7.32157 -3.50083,10.77641 0.51219,3.45485 3.04823,7.31662 4.70145,9.6966 1.65322,2.37998 5.22884,5.66648 8.91462,7.77895 5.43044,3.11241 12.43933,4.4876 15.96205,3.23433 3.52271,-1.25327 5.99552,-8.71191 6.47388,-10.72398 0.88805,-3.73534 5.07311,-6.09574 2.9293,-9.8834 z"
       style="fill:#be0000;fill-opacity:1;stroke-width:0.26458332" />
    <path
       id="path4784"
       d="m 77.605618,144.19002 c 0.807482,-1.21515 2.380465,-7.08565 2.380465,-7.08565 0,0 -3.510964,2.94933 -5.182778,5.02206 -0.657097,0.81468 -1.202113,1.94823 -0.09776,2.8244 0.79851,0.63353 2.154485,0.36121 2.900078,-0.76081 z"
       style="fill:#ffe0bd;fill-opacity:1;stroke-width:0.26458332" />
    <path
       id="path4782"
       d="m 101.10271,70.22313 c -3.69423,0.04854 -6.04832,0.81142 -11.310952,4.277175 -4.523273,2.939735 -10.862569,6.854538 -16.197587,4.681498 5.777808,4.33551 10.864999,0.68491 14.301588,-1.42436 6.516791,-3.965247 9.915691,-5.311852 13.259091,-5.254282 11.04211,0.190133 19.53551,12.708472 21.2826,23.684472 1.51203,-12.69359 -10.64721,-26.104918 -21.33474,-25.964503 z"
       style="fill:#a05a2c;fill-opacity:1;stroke-width:0.26458332" />
    <path
       id="path4820"
       d="m 15.981457,135.35335 c -0.983576,-0.30796 -1.437262,-1.06919 -2.306089,-2.06928 -1.215826,-1.39952 -1.780554,-2.38288 -1.494674,-4.41701 0.337834,0.0984 0.709299,0.52026 1.23121,0.52541 0.649689,0.006 1.06422,-0.43647 1.719063,-0.53012 0.78187,-0.11183 1.33751,0.0851 1.713572,0.3095 4.368784,2.70147 7.80401,5.21379 11.41083,8.22066 0.580198,0.48369 1.106334,0.82398 1.728754,0.90457 0.385543,0.0499 0.779598,-0.12199 1.110895,-0.20556 1.748973,-0.44116 2.240457,0.61542 -0.0036,1.3495 -1.559614,3.56761 -3.939103,6.73129 -7.54354,7.92174 -3.52332,1.16366 -6.760752,1.79541 -9.135507,-0.32041 -1.687765,-1.50374 -0.9399,-4.90904 2.300519,-6.83681 0.42062,-0.24073 0.528487,-0.27869 0.890482,0.66481 0.255263,0.66532 0.45712,0.92003 1.248916,0.76999 2.809376,-0.52493 5.579209,-1.18025 8.135211,-2.15071 -3.341731,-1.02516 -5.260617,-2.6009 -8.330584,-3.74847 -1.013453,-0.37883 -1.861947,-0.1331 -2.675458,-0.38781 z"
       style="fill:#be0000;fill-opacity:1;stroke:#550000;stroke-width:0.5;stroke-miterlimit:4;stroke-dasharray:none" />
    <path
       id="path4778"
       d="m 13.656109,128.37156 c -0.0734,-0.11876 0.03341,-0.68431 0.237355,-1.25677 0.203945,-0.57246 0.376035,-1.2538 0.382422,-1.51408 0.01411,-0.57503 -1.486413,-2.12582 -3.348829,-3.46101 -2.4522947,-1.75809 -4.0404137,-4.52785 -4.0399887,-7.04595 4.24e-4,-2.57869 1.02991,-2.46738 1.524833,0.16487 0.467582,2.48682 1.123346,3.72821 2.8592037,5.41259 2.326107,2.25713 2.476355,2.42396 3.298232,3.66217 1.00142,1.5087 1.116463,2.89444 0.314734,3.79109 -0.439158,0.49116 -1.006559,0.60533 -1.227962,0.24709 z"
       style="fill:#000000;stroke-width:0.26458332" />
    <path
       id="path4776"
       d="m 19.344513,122.87691 c -0.793801,-1.63876 -2.109826,-2.2358 -3.970315,-2.21049 -1.930334,0.0263 -2.306283,-0.57638 -1.116713,-1.19153 2.502225,-1.29395 6.40293,0.47359 6.480746,2.93665 0.03987,1.26196 -0.833527,1.62185 -1.393718,0.46537 z"
       style="fill:#000000;stroke-width:0.26458332" />
    <path
       id="path4828"
       d="m 30.983217,100.7291 c 0.793978,0.0738 1.867225,0.011 2.173216,-0.43892 0.363953,-0.535217 0.502266,-1.588747 0.587932,-3.486387 0.06814,-1.50941 0.319962,-3.42565 0.559609,-4.25831 0.377898,-1.31302 0.548701,-1.5512 1.287116,-1.7949 1.356199,-0.44759 3.071011,0.0955 5.641382,1.7865 2.590766,1.70443 3.205144,2.19701 5.529207,4.43274 0.73826,0.7102 1.201475,1.17407 1.429248,1.47758 0.345815,0.4608 -0.124126,0.77562 -0.565928,0.25189 -0.722243,-0.85618 -1.58009,-1.63594 -2.277978,-2.24644 -3.185828,-2.78689 -7.10566,-4.89089 -8.363003,-4.49182 -0.486119,0.15429 -0.974359,1.57317 -1.541441,4.47962 -0.370417,1.89849 -1.153006,3.611127 -1.838671,4.274797 -0.405557,0.39255 -0.819297,0.48768 -1.442324,0.54427 -1.321449,0.12002 -1.956526,-0.60294 -1.178365,-0.53062 z"
       style="fill:#000080;stroke-width:0.26458332" />
    <path
       id="path4774"
       d="m 33.830853,101.84939 c 3.831155,0.50297 6.114191,0.29372 9.857254,0.69837 1.925102,0.20812 5.770551,0.76973 5.788975,1.43653 0.01784,0.64563 -1.751707,2.04933 -3.559341,2.67453 -3.361637,1.16268 -7.554799,2.22973 -10.46738,0.18833 -0.705701,-0.49462 -0.862325,-0.96306 -0.641114,-1.67039 0.20688,-0.66151 0.13772,-0.98382 -0.314886,-1.33422 -1.325285,-1.02601 -3.146773,-1.61398 -4.32457,-2.47588 -0.945401,-0.69184 -0.798581,-1.451747 -0.08906,-1.08137 1.154722,0.60278 2.239176,1.36574 3.750125,1.5641 z"
       style="fill:#000000;stroke-width:0.26458332" />
    <path
       id="path4761"
       d="m 59.221051,88.692123 c -3.696453,-2.98884 -7.433629,-5.30113 -11.535299,-7.24051 -4.055334,-1.91748 -5.223465,-1.74501 -12.354639,1.91241 -2.270159,1.16432 -4.242734,2.04576 -4.383502,1.95876 -0.827847,-0.51164 0.130137,-2.90258 1.922189,-4.79741 1.779588,-1.88165 2.712281,-2.42354 4.879959,-2.83522 2.384743,-0.452903 4.732348,-0.18624 7.229407,0.82122 2.329182,0.93972 6.98828,3.7321 9.762431,5.85099 5.006826,3.82421 6.377152,4.93772 6.377152,5.18201 0,0.38858 -0.781596,0.0502 -1.897698,-0.85225 z"
       style="fill:#502d16;fill-opacity:1;stroke-width:0.26458332" />
    <path
       id="path4816"
       d="m 52.873328,167.01938 c -0.132111,-0.46255 0.970081,-0.76142 1.199073,0.0108 2.880582,9.71408 4.854007,16.64745 5.03382,27.75669 0.101626,6.27868 -0.76989,11.18707 -1.674513,17.19411 -0.699955,4.64797 -1.703647,5.1606 -1.521115,-0.43478 0.209064,-6.4087 0.495109,-12.92292 0.21315,-19.38501 -0.379596,-8.6998 -0.933573,-17.02993 -3.250415,-25.14181 z"
       style="fill:#000000;stroke-width:0.26458332" />
    <path
       id="path4796"
       d="m 38.364595,217.31936 c 10.13513,3.64473 20.358054,8.96132 28.375908,14.67397 4.134911,-3.40541 8.695407,-6.54906 12.779259,-9.26511 5.487596,-3.64964 11.175838,-5.43522 18.082228,-3.78495 1.39952,0.33441 1.55685,1.27129 -0.17709,1.03442 -2.57966,-0.3524 -4.94516,-0.35459 -7.33427,0.45269 -9.370101,3.16615 -15.820799,9.22718 -23.300385,14.2335 -9.746985,-7.02121 -19.817144,-12.0474 -32.089634,-16.33497 5.455732,-10.08545 10.633267,-19.74839 21.719689,-24.58951 1.926604,-0.62316 1.356792,0.25032 -0.0099,1.23788 -7.670886,6.00999 -14.129972,14.66471 -18.045805,22.34208 z"
       style="fill:#000000;stroke-width:0.26458332" />
    <path
       id="path4530"
       d="m 109.5902,184.5908 c -5.42874,-3.64429 -12.31159,-10.87886 -12.15262,-16.76237 0.12682,-4.69363 1.01996,-7.80973 3.60047,-11.17745 3.22195,-4.20483 9.11843,-7.06831 13.79264,-7.62139 2.70403,-0.31996 7.09562,0.0549 9.26232,1.79369 1.30166,1.04458 -2.09163,0.64868 -3.0714,0.41764 -1.94213,-0.45797 -4.9805,-0.92781 -6.79589,-0.10475 -4.35517,1.97454 -9.17764,3.7811 -12.15076,7.67585 -2.58778,3.38995 -3.67428,8.23038 -1.79013,12.33352 2.48466,5.41087 5.62491,9.16436 10.10452,12.21463 5.60083,3.81373 12.39202,6.52906 17.66645,4.79057 3.98208,-1.31252 4.97605,-8.93484 6.07514,-13.75831 0.262,-1.14979 0.89298,-2.7277 1.08356,-0.72613 0.47406,4.97884 -1.40524,12.69568 -4.45011,15.74499 -1.48913,1.42254 -3.88449,1.325 -7.10897,1.15774 -5.32113,-0.27602 -10.06284,-3.29145 -14.06522,-5.97823 z"
       style="fill:#000000;fill-opacity:1;stroke-width:0.26458332" />
    <path
       id="path4549"
       d="m 105.30416,173.38818 c -0.34542,-0.69288 0.31485,-0.73968 0.90668,-0.0335 4.88669,5.83083 14.16897,10.67149 21.64905,8.00809 0.35412,-0.12609 0.8548,0.24031 0.52552,0.49653 -2.7837,2.1661 -8.1407,1.72712 -10.68562,0.75625 -5.57168,-2.12555 -10.11859,-4.65977 -12.39563,-9.22737 z"
       style="fill:#000000;fill-opacity:1;stroke-width:0.26458332" />
    <path
       id="path4547"
       d="m 127.11994,180.43171 c 1.03323,-1.77453 2.22633,-3.78205 2.66267,-8.49557 0.34363,-3.71202 0.79355,-7.24731 0.7589,-11.40021 -0.0167,-2.00281 -0.31,-6.4775 -0.17886,-6.4775 2.3212,4.60923 2.88973,13.7454 1.5717,18.97906 -0.83941,3.33313 -2.67428,7.56718 -5.57583,9.40625 -0.60582,-0.21875 -0.22906,-0.31095 0.76142,-2.01203 z"
       style="fill:#000000;fill-opacity:1;stroke-width:0.26458332" />
    <path
       id="path4545"
       d="m 128.57284,180.28672 c 0,-1.45669 1.62319,-2.39424 2.66371,-3.26841 1.71627,-1.44189 4.97325,-3.20187 5.73747,-5.32221 0.70754,-1.96307 0.12276,-3.65739 -0.38891,-5.35162 -1.51482,-5.01585 -4.67289,-9.52945 -8.78539,-12.7609 -2.15483,-1.69319 -5.09414,-1.31755 -7.66595,-1.25542 -2.28512,0.0552 -4.64076,0.66612 -6.63569,1.85159 -1.78747,1.0622 -1.60944,-0.90796 -0.1599,-1.71386 4.5741,-2.54306 8.82014,-2.63543 13.32777,-1.78009 2.10259,0.39897 4.20035,1.78657 8.00632,7.26135 3.68118,5.29527 4.66453,8.53675 4.49856,11.4671 -0.28062,4.95459 -6.4173,8.9101 -10.17152,10.93019 -0.12788,0.0688 -0.42647,0.10316 -0.42647,-0.0577 z"
       style="fill:#000000;fill-opacity:1;stroke-width:0.26458332" />
    <path
       id="path4543"
       d="m 115.49062,178.03621 c -3.01444,-0.31769 -5.94258,-1.88239 -7.91963,-4.23198 -1.56642,-1.86159 -2.49229,-5.75288 -1.68046,-7.21765 l 0.35094,-0.63321 0.17126,0.89779 c 0.50275,2.6357 3.35376,7.13877 5.81258,8.3712 5.0392,2.5258 12.3784,0.39018 14.53879,-4.2306 0.94633,-2.02406 1.51303,-1.96208 0.90108,0.0986 -1.30647,4.39936 -6.76857,7.51563 -12.17456,6.94589 z"
       style="fill:#000000;fill-opacity:1;stroke-width:0.26458332" />
    <path
       id="path4539"
       d="m 114.96146,172.2746 c -2.65147,-0.6829 -5.54796,-3.38085 -5.71421,-5.32252 -0.17952,-2.09664 0.51735,-2.57113 1.01938,-0.6941 1.58983,3.58436 5.01405,4.80251 8.57397,4.16073 4.2646,-0.76881 6.58911,-5.13211 7.53375,-8.20723 0.0851,-0.28049 0.18976,-0.29904 0.41519,-0.0736 0.42952,0.42952 -0.37337,3.17837 -1.5607,5.34337 -1.94613,3.54862 -3.85803,4.86239 -7.35697,4.96621 -1.16416,0.0345 -2.47385,-0.0604 -2.91041,-0.17285 z"
       style="fill:#000000;fill-opacity:1;stroke-width:0.26458332" />
    <path
       id="path4537"
       d="m 104.9003,169.40983 c 0.20899,-1.11404 2.37683,-7.93068 2.96934,-9.33692 0.45647,-1.08338 2.35889,-4.86979 2.80833,-5.58946 0.31466,-0.50384 0.97619,-0.68481 0.97619,-0.26705 0,0.12589 -0.22204,0.51285 -0.49344,0.85989 -1.44547,1.84842 -5.85656,13.00619 -5.85656,14.81408 0,0.27571 -0.13231,0.50129 -0.29402,0.50129 -0.19592,0 -0.23257,-0.32762 -0.10984,-0.98183 z"
       style="fill:#000000;fill-opacity:1;stroke-width:0.26458332" />
    <path
       id="path4535"
       d="m 114.10249,172.65129 c -0.46629,-0.66821 -0.25305,-8.16939 0.42441,-9.75664 1.09064,-2.5553 3.64327,-5.46757 5.22857,-5.46757 0.86131,0 0.57454,0.53981 -0.70662,1.33012 -1.8237,1.12498 -3.42265,3.73087 -3.81039,5.7232 -0.11588,0.59542 -0.26446,4.87255 -0.29409,6.10918 -0.0297,1.23861 -0.13289,2.27872 -0.1377,2.3151 -0.0267,0.20213 -0.521,0.009 -0.70418,-0.25339 z"
       style="fill:#000000;fill-opacity:1;stroke-width:0.26458332" />
    <path
       id="path4533"
       d="m 114.37365,169.78962 c 0.13852,-0.33657 -0.025,-0.14271 0.22692,-0.73773 1.57833,0.90684 4.95708,-2.36037 5.55864,-3.84773 0.58713,-1.45169 1.08845,-4.65205 0.77222,-5.48381 -0.16204,-0.42621 -0.30127,-1.18573 0.12169,-1.38975 0.40958,-0.19757 0.89919,0.44987 0.96295,0.78444 0.67154,3.5236 -0.28838,6.16092 -2.52681,8.65238 -1.59397,1.77414 -4.58759,2.65174 -5.17084,2.01115 z"
       style="fill:#000000;fill-opacity:1;stroke-width:0.26458332" />
    <path
       id="path4520"
       d="m 111.65416,160.91846 c 0,-0.46443 1.59385,-2.68959 2.22074,-3.10034 1.35523,-0.88798 1.20261,-0.0715 -0.30091,1.60979 -1.43771,1.60772 -1.91983,1.98203 -1.91983,1.49055 z"
       style="fill:#000000;fill-opacity:1;stroke-width:0.26458332" />
    <path
       id="path4541"
       d="m 128.28123,170.37843 c 0.12831,-3.48652 -0.1715,-10.09317 -2.73929,-11.93537 -2.50462,-1.79689 -10.17308,-2.37439 -15.63359,-1.73547 0.22097,-0.46057 0.61375,-1.05044 0.85682,-1.43188 5.08712,-0.68207 13.64623,-0.038 15.77259,2.24164 3.36087,3.60311 2.89091,8.38081 2.4299,12.61594 -0.0592,2.05061 -0.006,3.39125 -0.31399,3.47381 -0.52707,0.14114 -0.46427,-0.73334 -0.37244,-3.22867 z"
       style="fill:#000000;fill-opacity:1;stroke-width:0.26458332" />
  </g>
</svg>
